<mxfile host="app.diagrams.net" modified="2022-10-17T03:51:40.083Z" agent="5.0 (Windows NT 10.0; Win64; x64) AppleWebKit/537.36 (KHTML, like Gecko) Chrome/106.0.0.0 Safari/537.36 Edg/106.0.1370.42" etag="qsi2CzdHgbuV1BBmSfsK" version="20.4.1" type="github">
  <diagram id="C5RBs43oDa-KdzZeNtuy" name="正向过程">
    <mxGraphModel dx="1422" dy="786" grid="1" gridSize="10" guides="1" tooltips="1" connect="1" arrows="1" fold="1" page="1" pageScale="1" pageWidth="827" pageHeight="1169" math="0" shadow="0">
      <root>
        <mxCell id="WIyWlLk6GJQsqaUBKTNV-0" />
        <mxCell id="WIyWlLk6GJQsqaUBKTNV-1" parent="WIyWlLk6GJQsqaUBKTNV-0" />
        <mxCell id="MVzGXysxAG-uWQFW-auq-35" value="" style="rounded=0;whiteSpace=wrap;html=1;fillColor=none;" vertex="1" parent="WIyWlLk6GJQsqaUBKTNV-1">
          <mxGeometry x="130" y="80" width="490" height="500" as="geometry" />
        </mxCell>
        <mxCell id="MVzGXysxAG-uWQFW-auq-25" value="" style="rounded=0;whiteSpace=wrap;html=1;fillColor=none;dashed=1;" vertex="1" parent="WIyWlLk6GJQsqaUBKTNV-1">
          <mxGeometry x="145" y="470" width="455" height="100" as="geometry" />
        </mxCell>
        <mxCell id="MVzGXysxAG-uWQFW-auq-24" value="" style="rounded=0;whiteSpace=wrap;html=1;fillColor=none;dashed=1;" vertex="1" parent="WIyWlLk6GJQsqaUBKTNV-1">
          <mxGeometry x="145" y="310" width="455" height="140" as="geometry" />
        </mxCell>
        <mxCell id="MVzGXysxAG-uWQFW-auq-21" value="" style="rounded=0;whiteSpace=wrap;html=1;fillColor=none;dashed=1;" vertex="1" parent="WIyWlLk6GJQsqaUBKTNV-1">
          <mxGeometry x="145" y="190" width="455" height="100" as="geometry" />
        </mxCell>
        <mxCell id="MVzGXysxAG-uWQFW-auq-20" value="" style="rounded=0;whiteSpace=wrap;html=1;fillColor=none;dashed=1;" vertex="1" parent="WIyWlLk6GJQsqaUBKTNV-1">
          <mxGeometry x="145" y="100" width="455" height="70" as="geometry" />
        </mxCell>
        <mxCell id="WIyWlLk6GJQsqaUBKTNV-3" value="获取监控图像" style="rounded=1;whiteSpace=wrap;html=1;fontSize=12;glass=0;strokeWidth=1;shadow=0;" parent="WIyWlLk6GJQsqaUBKTNV-1" vertex="1">
          <mxGeometry x="280" y="115" width="120" height="40" as="geometry" />
        </mxCell>
        <mxCell id="MVzGXysxAG-uWQFW-auq-2" value="图像采集" style="text;html=1;align=center;verticalAlign=middle;resizable=0;points=[];autosize=1;strokeColor=none;fillColor=none;" vertex="1" parent="WIyWlLk6GJQsqaUBKTNV-1">
          <mxGeometry x="170" y="120" width="70" height="30" as="geometry" />
        </mxCell>
        <mxCell id="MVzGXysxAG-uWQFW-auq-6" style="edgeStyle=orthogonalEdgeStyle;rounded=0;orthogonalLoop=1;jettySize=auto;html=1;" edge="1" parent="WIyWlLk6GJQsqaUBKTNV-1" source="MVzGXysxAG-uWQFW-auq-3" target="MVzGXysxAG-uWQFW-auq-4">
          <mxGeometry relative="1" as="geometry" />
        </mxCell>
        <mxCell id="MVzGXysxAG-uWQFW-auq-3" value="检测人脸位置坐标" style="rounded=1;whiteSpace=wrap;html=1;fillColor=default;" vertex="1" parent="WIyWlLk6GJQsqaUBKTNV-1">
          <mxGeometry x="150" y="225" width="120" height="40" as="geometry" />
        </mxCell>
        <mxCell id="MVzGXysxAG-uWQFW-auq-7" style="edgeStyle=orthogonalEdgeStyle;rounded=0;orthogonalLoop=1;jettySize=auto;html=1;entryX=0;entryY=0.5;entryDx=0;entryDy=0;" edge="1" parent="WIyWlLk6GJQsqaUBKTNV-1" source="MVzGXysxAG-uWQFW-auq-4" target="MVzGXysxAG-uWQFW-auq-5">
          <mxGeometry relative="1" as="geometry" />
        </mxCell>
        <mxCell id="MVzGXysxAG-uWQFW-auq-4" value="face mask 替换人脸" style="rounded=1;whiteSpace=wrap;html=1;fillColor=default;" vertex="1" parent="WIyWlLk6GJQsqaUBKTNV-1">
          <mxGeometry x="300" y="225" width="120" height="40" as="geometry" />
        </mxCell>
        <mxCell id="MVzGXysxAG-uWQFW-auq-5" value="存储去隐私化后的图像" style="rounded=1;whiteSpace=wrap;html=1;fillColor=default;" vertex="1" parent="WIyWlLk6GJQsqaUBKTNV-1">
          <mxGeometry x="460" y="225" width="120" height="40" as="geometry" />
        </mxCell>
        <mxCell id="MVzGXysxAG-uWQFW-auq-13" style="edgeStyle=orthogonalEdgeStyle;rounded=0;orthogonalLoop=1;jettySize=auto;html=1;entryX=0;entryY=0.5;entryDx=0;entryDy=0;" edge="1" parent="WIyWlLk6GJQsqaUBKTNV-1" source="MVzGXysxAG-uWQFW-auq-8" target="MVzGXysxAG-uWQFW-auq-9">
          <mxGeometry relative="1" as="geometry" />
        </mxCell>
        <mxCell id="MVzGXysxAG-uWQFW-auq-8" value="提取人脸数据" style="rounded=1;whiteSpace=wrap;html=1;fillColor=default;" vertex="1" parent="WIyWlLk6GJQsqaUBKTNV-1">
          <mxGeometry x="160" y="360" width="120" height="40" as="geometry" />
        </mxCell>
        <mxCell id="MVzGXysxAG-uWQFW-auq-14" style="edgeStyle=orthogonalEdgeStyle;rounded=0;orthogonalLoop=1;jettySize=auto;html=1;entryX=0;entryY=0.5;entryDx=0;entryDy=0;" edge="1" parent="WIyWlLk6GJQsqaUBKTNV-1" source="MVzGXysxAG-uWQFW-auq-9" target="MVzGXysxAG-uWQFW-auq-11">
          <mxGeometry relative="1" as="geometry" />
        </mxCell>
        <mxCell id="MVzGXysxAG-uWQFW-auq-15" style="edgeStyle=orthogonalEdgeStyle;rounded=0;orthogonalLoop=1;jettySize=auto;html=1;entryX=0;entryY=0.5;entryDx=0;entryDy=0;" edge="1" parent="WIyWlLk6GJQsqaUBKTNV-1" source="MVzGXysxAG-uWQFW-auq-9" target="MVzGXysxAG-uWQFW-auq-12">
          <mxGeometry relative="1" as="geometry" />
        </mxCell>
        <mxCell id="MVzGXysxAG-uWQFW-auq-9" value="加密人脸数据" style="rounded=1;whiteSpace=wrap;html=1;fillColor=default;" vertex="1" parent="WIyWlLk6GJQsqaUBKTNV-1">
          <mxGeometry x="310" y="360" width="120" height="40" as="geometry" />
        </mxCell>
        <mxCell id="MVzGXysxAG-uWQFW-auq-11" value="存储人脸密文" style="rounded=1;whiteSpace=wrap;html=1;fillColor=default;" vertex="1" parent="WIyWlLk6GJQsqaUBKTNV-1">
          <mxGeometry x="470" y="320" width="120" height="40" as="geometry" />
        </mxCell>
        <mxCell id="MVzGXysxAG-uWQFW-auq-12" value="存储人脸密钥" style="rounded=1;whiteSpace=wrap;html=1;fillColor=default;" vertex="1" parent="WIyWlLk6GJQsqaUBKTNV-1">
          <mxGeometry x="470" y="400" width="120" height="40" as="geometry" />
        </mxCell>
        <mxCell id="MVzGXysxAG-uWQFW-auq-39" style="edgeStyle=orthogonalEdgeStyle;rounded=0;orthogonalLoop=1;jettySize=auto;html=1;entryX=0;entryY=0.5;entryDx=0;entryDy=0;" edge="1" parent="WIyWlLk6GJQsqaUBKTNV-1" source="MVzGXysxAG-uWQFW-auq-16" target="MVzGXysxAG-uWQFW-auq-17">
          <mxGeometry relative="1" as="geometry" />
        </mxCell>
        <mxCell id="MVzGXysxAG-uWQFW-auq-16" value="计算人脸指纹" style="rounded=1;whiteSpace=wrap;html=1;fillColor=default;" vertex="1" parent="WIyWlLk6GJQsqaUBKTNV-1">
          <mxGeometry x="160" y="505" width="120" height="40" as="geometry" />
        </mxCell>
        <mxCell id="MVzGXysxAG-uWQFW-auq-17" value="区块链存储人脸指纹" style="rounded=1;whiteSpace=wrap;html=1;fillColor=default;" vertex="1" parent="WIyWlLk6GJQsqaUBKTNV-1">
          <mxGeometry x="315" y="505" width="120" height="40" as="geometry" />
        </mxCell>
        <mxCell id="MVzGXysxAG-uWQFW-auq-23" style="edgeStyle=orthogonalEdgeStyle;rounded=0;orthogonalLoop=1;jettySize=auto;html=1;entryX=0.5;entryY=0;entryDx=0;entryDy=0;" edge="1" parent="WIyWlLk6GJQsqaUBKTNV-1" source="MVzGXysxAG-uWQFW-auq-20" target="MVzGXysxAG-uWQFW-auq-21">
          <mxGeometry relative="1" as="geometry" />
        </mxCell>
        <mxCell id="MVzGXysxAG-uWQFW-auq-26" style="edgeStyle=orthogonalEdgeStyle;rounded=0;orthogonalLoop=1;jettySize=auto;html=1;entryX=0.5;entryY=0;entryDx=0;entryDy=0;" edge="1" parent="WIyWlLk6GJQsqaUBKTNV-1" source="MVzGXysxAG-uWQFW-auq-21" target="MVzGXysxAG-uWQFW-auq-24">
          <mxGeometry relative="1" as="geometry" />
        </mxCell>
        <mxCell id="MVzGXysxAG-uWQFW-auq-27" style="edgeStyle=orthogonalEdgeStyle;rounded=0;orthogonalLoop=1;jettySize=auto;html=1;entryX=0.5;entryY=0;entryDx=0;entryDy=0;" edge="1" parent="WIyWlLk6GJQsqaUBKTNV-1" source="MVzGXysxAG-uWQFW-auq-24" target="MVzGXysxAG-uWQFW-auq-25">
          <mxGeometry relative="1" as="geometry" />
        </mxCell>
        <mxCell id="MVzGXysxAG-uWQFW-auq-29" value="人脸隐私保护模块" style="text;html=1;align=center;verticalAlign=middle;resizable=0;points=[];autosize=1;strokeColor=none;fillColor=none;" vertex="1" parent="WIyWlLk6GJQsqaUBKTNV-1">
          <mxGeometry x="145" y="190" width="120" height="30" as="geometry" />
        </mxCell>
        <mxCell id="MVzGXysxAG-uWQFW-auq-30" value="人脸私密性模块&lt;br&gt;" style="text;html=1;align=center;verticalAlign=middle;resizable=0;points=[];autosize=1;strokeColor=none;fillColor=none;" vertex="1" parent="WIyWlLk6GJQsqaUBKTNV-1">
          <mxGeometry x="145" y="310" width="110" height="30" as="geometry" />
        </mxCell>
        <mxCell id="MVzGXysxAG-uWQFW-auq-31" value="人脸完整性模块" style="text;html=1;align=center;verticalAlign=middle;resizable=0;points=[];autosize=1;strokeColor=none;fillColor=none;" vertex="1" parent="WIyWlLk6GJQsqaUBKTNV-1">
          <mxGeometry x="145" y="470" width="110" height="30" as="geometry" />
        </mxCell>
      </root>
    </mxGraphModel>
  </diagram>
</mxfile>
